# xmcd
#
# Track frame offsets:
#	150
#	12843
#	21199
#	35536
#	45530
#	56924
#	69692
#	79912
#	95254
#	106227
#	114657
#	123791
#	136933
#	146822
#	161842
#	172392
#
# Disc length: 2433 seconds
#
# Revision: 0
# Processed by: cddbd v1.5.2PL0 Copyright (c) Steve Scherf et al.
# Submitted via: EasyCDDAExtractor 11.1.0.1
#
DISCID=e2097f10
DTITLE=Various Artist - Country Legends
DYEAR=2008
DGENRE=country
TTITLE0=Lynn Anderson - Rose Garden
TTITLE1=Willie Nelson - Slow down old world
TTITLE2=Glen Campbell - Rhinestone cowboys
TTITLE3=Faron Young - Hello walls
TTITLE4=Patsy Cline - Walkin' after midnight
TTITLE5=Dottie West - I fall to pieces
TTITLE6=Roger Miller - King of the road
TTITLE7=Bobby Bare - Leaving on a jet plane
TTITLE8=Buck Owens - Above and beyond
TTITLE9=Waylon Jennings - Abilene
TTITLE10=Frankie Laine - Rawhide
TTITLE11=George Jones - Seasons of my heart
TTITLE12=Patsy Cline - Pick me up on your way down
TTITLE13=Bobby Bare - For the good times
TTITLE14=Hank Locklin - Crazy over you
TTITLE15=Gene Autry - Down in the valley
EXTD=
EXTT0=
EXTT1=
EXTT2=
EXTT3=
EXTT4=
EXTT5=
EXTT6=
EXTT7=
EXTT8=
EXTT9=
EXTT10=
EXTT11=
EXTT12=
EXTT13=
EXTT14=
EXTT15=
PLAYORDER=
